{"title":"G.I. Joe Retaliation 2013 TS XviD AC3 - BHRG","uid":8347566,"size":1684508833,"categoryP":"video","categoryS":"movies","magnet":"?xt=urn:btih:84af3cb52063ebe09b54d9b246f9a6c36625d385&amp;dn=G.I.+Joe+Retaliation+2013+TS+XviD+AC3+-+BHRG&amp;tr=udp%3A%2F%2Ftracker.openbittorrent.com%3A80&amp;tr=udp%3A%2F%2Fopen.demonii.com%3A1337&amp;tr=udp%3A%2F%2Ftracker.coppersurfer.tk%3A6969&amp;tr=udp%3A%2F%2Fexodus.desync.com%3A6969","seeders":2,"leechers":0,"uploader":"Gh0stNet","files":3,"time":1365249084,"description":"Format                                   : AVI\nFormat/Info                              : Audio Video Interleave\nFile size                                : 1.55 GiB\nDuration                                 : 1h 40mn\nOverall bit rate                         : 2 204 Kbps\n\nVideo\nID                                       : 0\nFormat                                   : MPEG-4 Visual\nFormat profile                           : Advanced Simple@L5\nFormat settings, BVOP                    : 2\nFormat settings, QPel                    : No\nFormat settings, GMC                     : No warppoints\nFormat settings, Matrix                  : Default (H.263)\nCodec ID                                 : XVID\nCodec ID/Hint                            : XviD\nDuration                                 : 1h 40mn\nBit rate                                 : 1 749 Kbps\nWidth                                    : 640 pixels\nHeight                                   : 272 pixels\nDisplay aspect ratio                     : 2.35:1\nFrame rate                               : 23.976 fps\nColor space                              : YUV\nChroma subsampling                       : 4:2:0\nBit depth                                : 8 bits\nScan type                                : Progressive\nCompression mode                         : Lossy\nBits/(Pixel*Frame)                       : 0.419\nStream size                              : 1.23 GiB (79%)\nWriting library                          : XviD 1.2.1 (UTC 2008-12-04)\n\nAudio\nID                                       : 1\nFormat                                   : AC-3\nFormat/Info                              : Audio Coding 3\nMode extension                           : CM (complete main)\nFormat settings, Endianness              : Big\nCodec ID                                 : 2000\nDuration                                 : 1h 40mn\nBit rate mode                            : Constant\nBit rate                                 : 448 Kbps\nChannel(s)                               : 2 channels\nChannel positions                        : Front: L R\nSampling rate                            : 48.0 KHz\nBit depth                                : 16 bits\nCompression mode                         : Lossy\nStream size                              : 323 MiB (20%)\nAlignment                                : Aligned on interleaves\nInterleave, duration                     : 64 ms (1.53 video frames)\nInterleave, preload duration             : 192 ms\nTitle                                    : GI Joe 2 audio_new\n\nScreens:\n &lt;a href=&quot;\nhttp://imgbox.com/abnv202z&quot; rel=&quot;nofollow&quot; target=&quot;_NEW&quot;&gt;\nhttp://imgbox.com/abnv202z&lt;/a&gt; &lt;a href=&quot;\nhttp://imgbox.com/acxph1Rw&quot; rel=&quot;nofollow&quot; target=&quot;_NEW&quot;&gt;\nhttp://imgbox.com/acxph1Rw&lt;/a&gt; &lt;a href=&quot;\nhttp://imgbox.com/adhB2QKx&quot; rel=&quot;nofollow&quot; target=&quot;_NEW&quot;&gt;\nhttp://imgbox.com/adhB2QKx&lt;/a&gt; &lt;a href=&quot;\nhttp://imgbox.com/acoqNMaO&quot; rel=&quot;nofollow&quot; target=&quot;_NEW&quot;&gt;\nhttp://imgbox.com/acoqNMaO&lt;/a&gt;","torrent":{"xt":"urn:btih:84af3cb52063ebe09b54d9b246f9a6c36625d385","amp;dn":"G.I.+Joe+Retaliation+2013+TS+XviD+AC3+-+BHRG","amp;tr":["udp%3A%2F%2Ftracker.openbittorrent.com%3A80","udp%3A%2F%2Fopen.demonii.com%3A1337","udp%3A%2F%2Ftracker.coppersurfer.tk%3A6969","udp%3A%2F%2Fexodus.desync.com%3A6969"],"infoHash":"84af3cb52063ebe09b54d9b246f9a6c36625d385","infoHashBuffer":{"type":"Buffer","data":[132,175,60,181,32,99,235,224,155,84,217,178,70,249,166,195,102,37,211,133]},"announce":[],"urlList":[]}}